<svg width="194" height="287" viewBox="0 0 194 287" fill="none" xmlns="http://www.w3.org/2000/svg">
<path d="M38.8516 263.53C38.8516 267.529 37.9873 270.554 36.2588 272.605C34.5449 274.656 32.04 275.681 28.7441 275.681C25.4482 275.681 22.9287 274.67 21.1855 272.649C19.4424 270.613 18.5708 267.573 18.5708 263.53C18.5708 259.414 19.4424 256.345 21.1855 254.324C22.9434 252.302 25.4629 251.292 28.7441 251.292C32.0547 251.292 34.5669 252.324 36.2808 254.39C37.9946 256.44 38.8516 259.487 38.8516 263.53ZM34.9404 263.53C34.9404 260.396 34.4204 258.118 33.3804 256.697C32.355 255.276 30.8096 254.565 28.7441 254.565C26.6201 254.565 25.0454 255.283 24.02 256.719C22.9946 258.14 22.4819 260.41 22.4819 263.53C22.4819 266.533 22.9727 268.76 23.9541 270.21C24.9502 271.66 26.5469 272.385 28.7441 272.385C30.8389 272.385 32.3916 271.667 33.4023 270.232C34.4277 268.796 34.9404 266.562 34.9404 263.53ZM47.9263 263.926C47.9263 266.973 48.4463 269.148 49.4863 270.452C50.5264 271.741 52.1963 272.385 54.4961 272.385C55.5215 272.385 56.4224 272.173 57.1987 271.748C57.9751 271.309 58.7222 270.605 59.4399 269.639L62.5601 271.572C61.6812 272.891 60.6118 273.909 59.3521 274.626C58.0923 275.33 56.3857 275.681 54.2324 275.681C50.8047 275.681 48.2412 274.685 46.542 272.693C44.8574 270.701 44.0151 267.69 44.0151 263.662C44.0151 259.443 44.8354 256.331 46.4761 254.324C48.1313 252.302 50.6216 251.292 53.9468 251.292C56.9351 251.292 59.1763 252.156 60.6704 253.884C62.1646 255.598 62.9116 258.242 62.9116 261.816V263.926H47.9263ZM59.2202 260.959C59.1909 258.894 58.7515 257.29 57.9019 256.147C57.0669 255.005 55.7046 254.434 53.8149 254.434C52.0132 254.434 50.6582 254.954 49.75 255.994C48.8564 257.019 48.2632 258.674 47.9702 260.959H59.2202ZM83.478 275V272.715C82.6138 273.55 81.5737 274.253 80.3579 274.824C79.1421 275.396 77.8457 275.681 76.4688 275.681C73.7002 275.681 71.5615 274.641 70.0527 272.561C68.5439 270.466 67.7896 267.5 67.7896 263.662C67.7896 259.897 68.6099 256.895 70.2505 254.653C71.8911 252.412 74.1616 251.292 77.062 251.292C79.3911 251.292 81.5298 252.141 83.478 253.84V242.283H87.2793V275H83.478ZM83.478 257.136C81.4712 255.481 79.4937 254.653 77.5454 254.653C75.8315 254.653 74.4253 255.378 73.3267 256.829C72.2427 258.264 71.7007 260.513 71.7007 263.574C71.7007 269.39 73.5317 272.297 77.1938 272.297C78.395 272.297 79.5376 271.997 80.6216 271.396C81.7202 270.796 82.6724 270.107 83.478 269.331V257.136ZM121.293 275V261.421C121.293 259.136 121.205 257.627 121.029 256.895C120.854 256.162 120.546 255.657 120.106 255.378C119.667 255.085 119 254.939 118.107 254.939C117.345 254.939 116.488 255.21 115.536 255.752C114.584 256.294 113.339 257.283 111.801 258.718V275H108.021V261.421C108.021 259.253 107.934 257.788 107.758 257.026C107.582 256.265 107.282 255.73 106.857 255.422C106.432 255.1 105.773 254.939 104.879 254.939C104.059 254.939 103.1 255.269 102.001 255.928C100.902 256.572 99.7451 257.502 98.5293 258.718V275H94.75V251.951H98.5293V255.378C99.5254 254.294 100.639 253.342 101.869 252.522C103.1 251.702 104.418 251.292 105.824 251.292C107.377 251.292 108.615 251.65 109.538 252.368C110.475 253.086 111.098 254.229 111.405 255.796C112.606 254.521 113.83 253.452 115.075 252.588C116.32 251.724 117.704 251.292 119.228 251.292C120.634 251.292 121.762 251.592 122.611 252.192C123.461 252.778 124.083 253.635 124.479 254.763C124.875 255.876 125.072 257.495 125.072 259.619V275H121.293ZM137.091 246.106C137.091 246.985 136.894 247.585 136.498 247.908C136.117 248.215 135.487 248.369 134.608 248.369C133.686 248.369 133.048 248.171 132.697 247.776C132.36 247.38 132.191 246.824 132.191 246.106C132.191 245.33 132.375 244.766 132.741 244.414C133.122 244.048 133.744 243.865 134.608 243.865C135.517 243.865 136.154 244.041 136.52 244.392C136.901 244.729 137.091 245.3 137.091 246.106ZM136.498 275.989C136.498 278.772 135.956 280.75 134.872 281.921C133.788 283.093 132.038 283.679 129.621 283.679C128.156 283.679 126.779 283.459 125.49 283.02L126.435 279.9C127.504 280.325 128.61 280.537 129.752 280.537C130.983 280.537 131.781 280.105 132.147 279.241C132.528 278.391 132.719 277.161 132.719 275.549V251.951H136.498V275.989ZM158.493 275V271.572C157.321 272.744 156.032 273.726 154.625 274.517C153.219 275.293 151.842 275.681 150.495 275.681C148.957 275.681 147.704 275.396 146.737 274.824C145.785 274.238 145.089 273.367 144.65 272.209C144.225 271.038 144.013 269.419 144.013 267.354V251.951H147.792V265.552C147.792 267.749 147.902 269.214 148.122 269.946C148.356 270.679 148.722 271.213 149.22 271.55C149.718 271.873 150.443 272.034 151.396 272.034C152.348 272.034 153.468 271.667 154.757 270.935C156.046 270.188 157.292 269.294 158.493 268.254V251.951H162.272V275H158.493ZM183.344 275L176.027 264.651L173.544 267.397V275H169.765V242.283H173.544V262.717L182.904 251.951H187.541L178.356 262.036L188.024 275H183.344Z" fill="white"/>
<path d="M107.227 164.023C107.227 181.081 103.288 194.362 95.4102 203.867C87.5326 213.307 75.1302 218.027 58.2031 218.027C25.3906 218.027 8.98438 200.026 8.98438 164.023C8.98438 146.706 12.9232 133.327 20.8008 123.887C28.6784 114.382 41.1458 109.629 58.2031 109.629C75.1302 109.629 87.5326 114.382 95.4102 123.887C103.288 133.327 107.227 146.706 107.227 164.023ZM81.1523 164.023C81.1523 152.76 79.3945 144.557 75.8789 139.414C72.3633 134.206 66.4714 131.602 58.2031 131.602C50 131.602 44.0755 134.271 40.4297 139.609C36.7839 144.883 34.9609 153.021 34.9609 164.023C34.9609 174.961 36.7513 183.034 40.332 188.242C43.9779 193.385 49.9349 195.957 58.2031 195.957C66.3411 195.957 72.2005 193.418 75.7812 188.34C79.362 183.197 81.1523 175.091 81.1523 164.023Z" fill="white"/>
<path d="M116.961 170.371C117.417 179.486 119.63 186.029 123.602 190C127.573 193.971 133.823 195.957 142.352 195.957C147.299 195.957 151.629 195.339 155.34 194.102C159.116 192.865 162.404 190.488 165.203 186.973L183.953 200.352C179.852 206.276 174.513 210.703 167.938 213.633C161.427 216.562 152.508 218.027 141.18 218.027C124.318 218.027 111.72 213.6 103.387 204.746C95.1185 195.892 90.9844 182.513 90.9844 164.609C90.9844 127.956 107.391 109.629 140.203 109.629C154.786 109.629 165.887 113.763 173.504 122.031C181.186 130.234 185.027 142.214 185.027 157.969V170.371H116.961ZM160.027 152.988C160.027 137.428 153.224 129.648 139.617 129.648C135.125 129.648 131.447 130.43 128.582 131.992C125.717 133.49 123.406 135.768 121.648 138.828C119.956 141.823 118.621 146.543 117.645 152.988H160.027Z" fill="white"/>
</svg>
